<svg
	xmlns:svg="http://www.w3.org/2000/svg"
	xmlns="http://www.w3.org/2000/svg"
	width="100"
	height="100"
	viewBox="0 0 4096 4096">
	<rect x="0" y="0" width="4096" height="4096" fill="#66648b" />
	<path
	   d="m 1490.2022,495.6557 h 429.7979 l -2.3265,2508.5714 c 0,0 7.3523,229.0671 -164.2389,412.4434 C 1479.3705,3671.595 947.06978,3580.4837 783.61941,3397.3329 596.44971,3171.8011 630.6066,2921 630.6066,2921 l 429.7978,-220.48 0.2558,266.9376 c 0,0 11.7417,171.5866 212.1986,179.6989 200.4569,8.1124 212.0654,-182.5274 212.0654,-182.5274 z"
	   fill="#88b04b" />
	<path
	   d="m 3240,494.0543 v 440.97285 c 0,0 -491.8557,-44.12573 -623.4286,276.13335 -131.573,320.259 141.9168,565.5386 327.8212,738.0633 185.9045,172.5247 386.369,657.5027 223.4458,1156.8267 C 3004.9152,3605.3745 2140,3580.8643 2140,3580.8643 v -440.9729 c 0,0 595.3183,9.9289 642.3114,-297.0208 46.9931,-306.9497 -31.3192,-335.6489 -157.531,-506.1523 -126.2119,-170.5033 -405.1339,-368.9879 -464.1233,-715.7689 -58.9894,-346.781 -40.1322,-521.9547 182.7398,-816.30611 C 2566.2689,510.29191 3240,494.0543 3240,494.0543 Z"
	   fill="#88b04b" />
</svg>
