<svg version="1" xmlns="http://www.w3.org/2000/svg" width="2730.667" height="2730.667" viewBox="0 0 2048.000000 2048.000000"><path d="M0 1024v1024h2048V0H0v1024zm967-153.8c0 409.1-.4 623.2-1 632.8-1.5 20.3-3.7 39.2-6.6 55-24.4 134.7-105.8 212.2-244.1 232.5-42.5 6.2-99 7-142.8 2-158.8-18.4-245.9-106-263.9-265.5-1.4-12.2-3.6-46.9-3.6-57.7v-4.3l110-55c60.5-30.2 110.2-55 110.4-55 .3 0 .6 29.1.9 64.8.4 70.2.6 73.2 6.3 91.4 7.4 23.5 21.2 40.3 41.3 50.6 18.9 9.7 33.6 12.6 62.1 12.6 22.9 0 33-1.3 48.5-6.5 35-11.7 55.3-38.7 60.4-80.4.8-6.4 1.1-183.3 1.1-622.3V252h221v618.2zm662-507.9v110.4l-23.5.7c-70.8 2-125.7 11-172.5 28.3-13.3 4.8-39.8 18-50.5 25-39.7 26.1-66.6 63.2-77.5 107.2-8.1 32.3-9.1 67.2-3 95.1 14.7 66.2 63.4 139.6 154.8 233.2 33.4 34.3 46.6 49.4 66 75.3 51.5 68.8 84.5 144.6 98.2 225.3 11.5 68.2 9.6 148.7-5.1 215.2-33.7 152.1-137.3 250.6-308.1 293-43.1 10.7-93.9 18.4-144.8 22-19.6 1.4-59.8 3-74.2 3H1077v-221h10.8c24.4 0 63.2-2.7 89.2-6.1 107-14.1 176-52.4 208.9-115.9 13.1-25.3 19.7-52.4 21.6-88 3.3-63-31.4-135.3-107.6-224.1-13.8-16.1-31.4-35.1-58-62.4-43.1-44.4-68.8-77.4-94.3-120.8-49.4-84.5-72.6-176.2-70.3-278.7 2.2-97.1 23.6-174.2 66.2-238.5 81.4-122.7 237.6-185.4 469.3-188.3l16.2-.2v110.3z"/></svg>