<svg version="1" xmlns="http://www.w3.org/2000/svg" width="933.333" height="933.333" viewBox="0 0 700.000000 700.000000"><path d="M254.9 86.5c0 1.1-.2 96.3-.3 211.5-.2 158.1-.5 210.7-1.4 214.2-2.5 9.9-7.3 16.3-15.2 20.3-6.3 3.1-9.3 3.8-18.9 4-16.2.4-27.8-5.1-33.2-15.7-3.7-7.3-4.6-14.6-4.7-36.8-.1-11.7-.3-21.4-.5-21.6-.4-.4-6.2 2.5-53.7 27l-18.5 9.5v8.8c.1 8.6 1.1 20.8 2 23.5.2.7.6 2.6.9 4.3 5 28.6 21.3 51.4 46.1 64.3 5.8 3 18.4 7.6 23.5 8.5 16.2 3 23.7 3.8 37.9 3.8 39.3 0 70.2-12.4 87.7-35.5 8.6-11.3 15.8-28.1 18.4-43.1.5-3.3 1.2-7 1.4-8.2.3-1.3.8-6.9 1.1-12.5.8-12.8.9-426.7.1-427.5-.3-.3-16.8-.6-36.6-.7-35.3-.1-36-.1-36.1 1.9zM541.7 84.6c-.1.1-5.8.4-12.7.8-13.3.7-18.6 1.2-23.5 2-1.6.3-5.2.8-8 1.1-7.6.9-22.8 4.4-32.9 7.5-9 2.8-11.2 3.6-19.3 7.1-2.4 1.1-4.5 1.9-4.7 1.9-.2 0-4.1 2.1-8.7 4.7-40.1 22.5-61.1 57.5-65.5 109.3-.4 4.9-.4 25.6 0 31.1 1.7 22.4 7.5 43.3 17.5 63.9 4.7 9.5 11.5 20.9 15.8 26.5 1.3 1.6 2.7 3.4 3.1 4 4 5.4 8.5 10.8 12.4 15 2.5 2.7 6.5 7 8.8 9.5 2.4 2.5 7.4 7.9 11.3 12 20.2 21.5 35.7 46.1 40.7 64.4 7 25.3-2.2 54.6-21.7 69.4-17.7 13.4-46.9 21.1-82 21.6-4.3.1-6.3.5-6.4 1.3 0 .7-.1 17.3-.1 36.8 0 19.5.1 36 .1 36.5.1 1.7 38.7-.2 50.7-2.4 1.1-.2 4.4-.7 7.4-1.1 19.1-2.5 46.4-11.3 62.8-20.2 39-21.4 60.1-55.2 65.8-105.5.9-7.5.9-37 0-41.3-.3-1.7-.9-5.3-1.2-8-2.1-18.8-13.1-48-25-66.6-9.3-14.6-16.4-23.2-35.6-43.3-24.9-26.1-42.1-52-47.3-71.1-3.6-13.2-2.9-28.9 2-42.9 10.2-29.4 42.6-46.1 93.5-48.2 6.9-.3 13-.7 13.6-.9 1-.3 1.9-68.4.9-73-.4-1.8-1.2-2.1-6-2-3.1 0-5.7.1-5.8.1z"/></svg>